<svg width="19" height="20" viewBox="0 0 19 20" fill="none" xmlns="http://www.w3.org/2000/svg">
<path d="M1.38544 7.5C1.112 7.5 0.916687 7.73438 0.916687 7.96875V18.125C0.916687 19.1797 1.737 20 2.79169 20H16.5417C17.5573 20 18.4167 19.1797 18.4167 18.125V7.96875C18.4167 7.73438 18.1823 7.5 17.9479 7.5H1.38544ZM18.4167 5.78125V4.375C18.4167 3.35938 17.5573 2.5 16.5417 2.5H14.6667V0.46875C14.6667 0.234375 14.4323 0 14.1979 0H12.6354C12.362 0 12.1667 0.234375 12.1667 0.46875V2.5H7.16669V0.46875C7.16669 0.234375 6.93231 0 6.69794 0H5.13544C4.862 0 4.66669 0.234375 4.66669 0.46875V2.5H2.79169C1.737 2.5 0.916687 3.35938 0.916687 4.375V5.78125C0.916687 6.05469 1.112 6.25 1.38544 6.25H17.9479C18.1823 6.25 18.4167 6.05469 18.4167 5.78125Z" fill="#A2A2A4"/>
</svg>
